<svg xmlns="http://www.w3.org/2000/svg" viewBox="0 0 135 18" fill="none">
    <path d="M5.05945 17.7857V4.85774H0V1.11981H14.7548V4.85774H9.71885V17.7857H5.05945Z" fill="#73F36C"/>
    <path d="M21.3914 18C20.356 18 19.4226 17.7937 18.5911 17.381C17.7753 16.9683 17.1321 16.3255 16.6614 15.4525C16.2065 14.5636 15.979 13.4446 15.979 12.0955V4.88154H20.4501V11.3574C20.4501 12.3574 20.6306 13.0717 20.9914 13.5002C21.3679 13.9288 21.8935 14.143 22.568 14.143C23.0073 14.143 23.4074 14.0399 23.7682 13.8335C24.129 13.6272 24.4193 13.3018 24.6389 12.8574C24.8585 12.3971 24.9683 11.8098 24.9683 11.0955V4.88154H29.4395V17.7857H25.1801V14.143L26.0038 15.1668C25.5645 16.1191 24.9291 16.8334 24.0976 17.3096C23.2662 17.7698 22.3641 18 21.3914 18Z"
          fill="#73F36C"/>
    <path d="M32.3194 17.7857V4.88154H36.5788V8.64328L35.9434 7.5719C36.3199 6.60369 36.9318 5.8815 37.7789 5.40533C38.6261 4.91329 39.6537 4.66727 40.8617 4.66727V8.73851C40.6577 8.70677 40.4773 8.69089 40.3204 8.69089C40.1792 8.67502 40.0224 8.66709 39.8498 8.66709C38.9399 8.66709 38.2025 8.92104 37.6377 9.42896C37.073 9.921 36.7906 10.7305 36.7906 11.8574V17.7857H32.3194Z"
          fill="#73F36C"/>
    <path d="M48.7922 18C47.1607 18 45.8899 17.5953 44.98 16.7858C44.0701 15.9604 43.6151 14.7224 43.6151 13.0717V2.00072H48.0863V13.024C48.0863 13.4843 48.2118 13.8494 48.4628 14.1192C48.7138 14.3732 49.0354 14.5002 49.4276 14.5002C49.961 14.5002 50.416 14.3652 50.7925 14.0954L51.8985 17.2619C51.522 17.5159 51.0592 17.6984 50.5101 17.8095C49.961 17.9365 49.3884 18 48.7922 18ZM41.7561 8.73851V5.35771H51.0043V8.73851H41.7561Z"
          fill="#73F36C"/>
    <path d="M53.6226 17.7857V0.119854H58.0938V17.7857H53.6226Z" fill="#73F36C"/>
    <path d="M67.6826 18C66.1766 18 64.8587 17.7143 63.7292 17.1429C62.6153 16.5556 61.7446 15.762 61.1171 14.7621C60.5053 13.7462 60.1993 12.5955 60.1993 11.3098C60.1993 10.0242 60.4974 8.88136 61.0936 7.88141C61.7054 6.86558 62.5447 6.0799 63.6115 5.52437C64.6783 4.95297 65.8785 4.66727 67.212 4.66727C68.467 4.66727 69.6123 4.92916 70.6477 5.45295C71.6831 5.96086 72.5068 6.71479 73.1186 7.71475C73.7304 8.7147 74.0364 9.92894 74.0364 11.3574C74.0364 11.5162 74.0285 11.6987 74.0128 11.905C73.9971 12.1114 73.9815 12.3018 73.9658 12.4764H63.8704V10.0956H71.589L69.8947 10.7622C69.9104 10.175 69.8005 9.66704 69.5652 9.23849C69.3456 8.80994 69.0318 8.47662 68.6239 8.23853C68.2317 8.00045 67.7689 7.88141 67.2355 7.88141C66.7021 7.88141 66.2315 8.00045 65.8236 8.23853C65.4314 8.47662 65.1255 8.81787 64.9058 9.2623C64.6862 9.69085 64.5764 10.1988 64.5764 10.786V11.4765C64.5764 12.1114 64.7019 12.659 64.9529 13.1193C65.2196 13.5796 65.5961 13.9367 66.0824 14.1906C66.5688 14.4287 67.1492 14.5478 67.8238 14.5478C68.4513 14.5478 68.9847 14.4605 69.424 14.2859C69.879 14.0954 70.3261 13.8097 70.7654 13.4288L73.1186 15.9049C72.5068 16.5874 71.7537 17.1112 70.8595 17.4762C69.9653 17.8254 68.9063 18 67.6826 18Z"
          fill="#73F36C"/>
    <path d="M88.0968 17.9992C86.7947 17.9992 85.5867 17.7929 84.4728 17.3802C83.3746 16.9516 82.4176 16.3485 81.6019 15.5708C80.8018 14.793 80.1742 13.8803 79.7193 12.8328C79.2643 11.7693 79.0368 10.6027 79.0368 9.33293C79.0368 8.06314 79.2643 6.90446 79.7193 5.85689C80.1742 4.79345 80.8018 3.87285 81.6019 3.0951C82.4176 2.31736 83.3746 1.72215 84.4728 1.30947C85.5867 0.880915 86.7947 0.666636 88.0968 0.666636C89.6185 0.666636 90.9756 0.936468 92.1679 1.47613C93.3759 2.01578 94.3799 2.79353 95.18 3.80936L92.2149 6.52353C91.6815 5.88863 91.0932 5.40453 90.45 5.07121C89.8225 4.73789 89.1165 4.57123 88.3321 4.57123C87.6575 4.57123 87.0378 4.68234 86.4731 4.90455C85.9083 5.12676 85.4219 5.45215 85.014 5.8807C84.6218 6.29338 84.3081 6.79336 84.0727 7.38063C83.8531 7.96791 83.7433 8.61868 83.7433 9.33293C83.7433 10.0472 83.8531 10.698 84.0727 11.2852C84.3081 11.8725 84.6218 12.3804 85.014 12.809C85.4219 13.2216 85.9083 13.5391 86.4731 13.7613C87.0378 13.9835 87.6575 14.0946 88.3321 14.0946C89.1165 14.0946 89.8225 13.928 90.45 13.5947C91.0932 13.2613 91.6815 12.7772 92.2149 12.1423L95.18 14.8565C94.3799 15.8565 93.3759 16.6342 92.1679 17.1897C90.9756 17.7294 89.6185 17.9992 88.0968 17.9992Z"
          fill="#73F36C"/>
    <path d="M97.0457 17.6659V0H101.517V17.6659H97.0457Z" fill="#73F36C"/>
    <path d="M109.788 17.8802C108.752 17.8802 107.819 17.6738 106.988 17.2612C106.172 16.8485 105.529 16.2056 105.058 15.3327C104.603 14.4438 104.375 13.3248 104.375 11.9757V4.7617H108.847V11.2376C108.847 12.2376 109.027 12.9518 109.388 13.3804C109.764 13.8089 110.29 14.0232 110.964 14.0232C111.404 14.0232 111.804 13.92 112.165 13.7137C112.525 13.5074 112.816 13.182 113.035 12.7375C113.255 12.2772 113.365 11.69 113.365 10.9757V4.7617H117.836V17.6659H113.577V14.0232L114.4 15.047C113.961 15.9993 113.326 16.7136 112.494 17.1897C111.663 17.65 110.761 17.8802 109.788 17.8802Z"
          fill="#73F36C"/>
    <path d="M128.74 17.8802C127.595 17.8802 126.638 17.6421 125.869 17.1659C125.116 16.6898 124.552 15.9596 124.175 14.9755C123.799 13.9915 123.61 12.7296 123.61 11.19C123.61 9.68212 123.806 8.43614 124.199 7.45206C124.607 6.46797 125.195 5.73784 125.964 5.26168C126.732 4.78551 127.658 4.54742 128.74 4.54742C129.901 4.54742 130.952 4.81725 131.894 5.35691C132.851 5.89657 133.604 6.66638 134.153 7.66634C134.718 8.65042 135 9.82497 135 11.19C135 12.5709 134.718 13.7613 134.153 14.7613C133.604 15.7453 132.851 16.5152 131.894 17.0707C130.952 17.6103 129.901 17.8802 128.74 17.8802ZM120.716 17.6659V0H125.187V6.92827L124.952 11.19L124.975 15.4517V17.6659H120.716ZM127.799 14.2851C128.301 14.2851 128.748 14.1661 129.14 13.928C129.548 13.6899 129.87 13.3407 130.105 12.8804C130.356 12.4042 130.482 11.8408 130.482 11.19C130.482 10.5392 130.356 9.99163 130.105 9.54721C129.87 9.08691 129.548 8.73772 129.14 8.49963C128.748 8.26155 128.301 8.1425 127.799 8.1425C127.297 8.1425 126.842 8.26155 126.434 8.49963C126.042 8.73772 125.72 9.08691 125.469 9.54721C125.234 9.99163 125.116 10.5392 125.116 11.19C125.116 11.8408 125.234 12.4042 125.469 12.8804C125.72 13.3407 126.042 13.6899 126.434 13.928C126.842 14.1661 127.297 14.2851 127.799 14.2851Z"
          fill="#73F36C"/>
</svg>
